<svg xmlns="http://www.w3.org/2000/svg" xmlns:xlink="http://www.w3.org/1999/xlink" width="512" zoomAndPan="magnify" viewBox="0 0 384 383.999986" height="512" preserveAspectRatio="xMidYMid meet" version="1.0"><defs><clipPath id="4b7448b6ba"><path d="M 21.429688 21.996094 L 362.570312 21.996094 L 362.570312 363.132812 L 21.429688 363.132812 Z M 21.429688 21.996094 " clip-rule="nonzero"/></clipPath><clipPath id="fc60d0387c"><path d="M 328.453125 363.132812 L 55.546875 363.132812 C 36.714844 363.132812 21.429688 347.851562 21.429688 329.019531 L 21.429688 56.109375 C 21.429688 37.28125 36.714844 21.996094 55.546875 21.996094 L 328.453125 21.996094 C 347.285156 21.996094 362.570312 37.28125 362.570312 56.109375 L 362.570312 329.019531 C 362.570312 347.851562 347.285156 363.132812 328.453125 363.132812 Z M 328.453125 363.132812 " clip-rule="nonzero"/></clipPath><clipPath id="dff4fe94f7"><path d="M 72.472656 34 L 231.472656 34 L 231.472656 350 L 72.472656 350 Z M 72.472656 34 " clip-rule="nonzero"/></clipPath><clipPath id="e79c62f3b2"><path d="M 152.15625 34 L 311.15625 34 L 311.15625 350 L 152.15625 350 Z M 152.15625 34 " clip-rule="nonzero"/></clipPath></defs><rect x="-38.4" width="460.8" fill="#ffffff" y="-38.399999" height="460.799983" fill-opacity="1"/><rect x="-38.4" width="460.8" fill="#ffffff" y="-38.399999" height="460.799983" fill-opacity="1"/><rect x="-38.4" width="460.8" fill="#ffffff" y="-38.399999" height="460.799983" fill-opacity="1"/><g clip-path="url(#4b7448b6ba)"><g clip-path="url(#fc60d0387c)"><path fill="#ffffff" d="M 21.429688 21.996094 L 362.570312 21.996094 L 362.570312 363.132812 L 21.429688 363.132812 Z M 21.429688 21.996094 " fill-opacity="1" fill-rule="nonzero"/></g></g><g clip-path="url(#dff4fe94f7)"><path fill="#1f2833" d="M 72.472656 349.980469 L 72.472656 87.742188 L 126.0625 34.027344 L 231.472656 120.546875 L 231.472656 191.574219 L 126.0625 105.96875 L 126.0625 313.582031 Z M 72.472656 349.980469 " fill-opacity="1" fill-rule="nonzero"/></g><g clip-path="url(#e79c62f3b2)"><path fill="#ff4500" d="M 311.15625 34.027344 L 311.15625 296.269531 L 257.519531 349.980469 L 152.15625 263.515625 L 152.15625 192.484375 L 257.519531 278.042969 L 257.519531 70.480469 Z M 311.15625 34.027344 " fill-opacity="1" fill-rule="nonzero"/></g></svg>