<svg xmlns="http://www.w3.org/2000/svg" xmlns:xlink="http://www.w3.org/1999/xlink" width="500" zoomAndPan="magnify" viewBox="0 0 375 112.499997" height="150" preserveAspectRatio="xMidYMid meet" version="1.0"><defs><g/><clipPath id="1ee8ca1de8"><path d="M 38.382812 3.292969 L 91.398438 3.292969 L 91.398438 108.574219 L 38.382812 108.574219 Z M 38.382812 3.292969 " clip-rule="nonzero"/></clipPath><clipPath id="f71b3ee6ae"><path d="M 12.03125 3.292969 L 65.042969 3.292969 L 65.042969 108.574219 L 12.03125 108.574219 Z M 12.03125 3.292969 " clip-rule="nonzero"/></clipPath></defs><g fill="#222629" fill-opacity="1"><g transform="translate(177.469503, 40.512232)"><g><path d="M 4.527344 0 L 8.089844 0 L 8.089844 -19.480469 L 7.605469 -26.691406 L 7.738281 -26.691406 L 10.859375 -20.796875 L 22.910156 0 L 27.21875 0 L 27.21875 -30.914062 L 23.65625 -30.914062 L 23.65625 -11.476562 L 24.050781 -4.222656 L 23.964844 -4.175781 L 20.929688 -9.980469 L 8.882812 -30.914062 L 4.527344 -30.914062 Z M 4.527344 0 "/></g></g></g><g fill="#222629" fill-opacity="1"><g transform="translate(211.671673, 40.512232)"><g><path d="M 20.09375 -27.703125 L 20.09375 -30.824219 L 3.648438 -30.824219 L 3.648438 0 L 20.09375 0 L 20.09375 -3.078125 L 7.167969 -3.078125 L 7.167969 -14.113281 L 19.917969 -14.113281 L 19.917969 -17.191406 L 7.167969 -17.191406 L 7.167969 -27.703125 Z M 20.09375 -27.703125 "/></g></g></g><g fill="#222629" fill-opacity="1"><g transform="translate(237.125619, 40.512232)"><g><path d="M 10.203125 0.0898438 L 14.597656 0.0898438 L 19.214844 -16.003906 L 20.753906 -22.601562 L 20.886719 -22.601562 L 22.46875 -16.003906 L 27.042969 0.0898438 L 31.484375 0.0898438 L 39.839844 -30.824219 L 36.1875 -30.824219 L 30.78125 -9.9375 L 29.242188 -2.859375 L 29.109375 -2.859375 L 27.703125 -9.101562 L 22.867188 -26.472656 L 18.777344 -26.472656 L 13.984375 -9.144531 L 12.53125 -2.859375 L 12.398438 -2.859375 L 10.992188 -9.496094 L 5.453125 -30.824219 L 1.804688 -30.824219 Z M 10.203125 0.0898438 "/></g></g></g><g fill="#222629" fill-opacity="1"><g transform="translate(108.996488, 83.819751)"><g><path d="M 17.722656 0.527344 C 22.558594 0.527344 26.648438 -1.496094 29.8125 -5.320312 L 27.308594 -7.253906 C 24.84375 -4.265625 21.152344 -2.683594 17.722656 -2.683594 C 10.15625 -2.683594 5.714844 -8.75 5.714844 -15.300781 C 5.714844 -22.207031 10.246094 -28.140625 17.898438 -28.140625 C 21.503906 -28.140625 24.359375 -26.734375 26.648438 -24.359375 L 28.84375 -26.425781 C 25.898438 -29.855469 22.25 -31.308594 17.722656 -31.308594 C 7.652344 -31.308594 2.15625 -23.4375 2.15625 -15.300781 C 2.15625 -7.125 7.78125 0.527344 17.722656 0.527344 Z M 17.722656 0.527344 "/></g></g></g><g fill="#222629" fill-opacity="1"><g transform="translate(143.066779, 83.819751)"><g><path d="M 23.261719 0 L 26.953125 0 L 15.785156 -30.78125 L 11.742188 -30.78125 L 0.660156 0 L 4.398438 0 L 7.914062 -9.675781 L 19.65625 -9.675781 Z M 12.3125 -22.867188 L 13.542969 -27.128906 L 13.894531 -27.128906 L 15.171875 -22.867188 L 18.554688 -12.796875 L 9.015625 -12.796875 Z M 12.3125 -22.867188 "/></g></g></g><g fill="#222629" fill-opacity="1"><g transform="translate(172.960777, 83.819751)"><g><path d="M 4.527344 0 L 8.089844 0 L 8.089844 -19.480469 L 7.605469 -26.691406 L 7.738281 -26.691406 L 10.859375 -20.796875 L 22.910156 0 L 27.21875 0 L 27.21875 -30.914062 L 23.65625 -30.914062 L 23.65625 -11.476562 L 24.050781 -4.222656 L 23.964844 -4.175781 L 20.929688 -9.980469 L 8.882812 -30.914062 L 4.527344 -30.914062 Z M 4.527344 0 "/></g></g></g><g fill="#222629" fill-opacity="1"><g transform="translate(207.16295, 83.819751)"><g><path d="M 23.261719 0 L 26.953125 0 L 15.785156 -30.78125 L 11.742188 -30.78125 L 0.660156 0 L 4.398438 0 L 7.914062 -9.675781 L 19.65625 -9.675781 Z M 12.3125 -22.867188 L 13.542969 -27.128906 L 13.894531 -27.128906 L 15.171875 -22.867188 L 18.554688 -12.796875 L 9.015625 -12.796875 Z M 12.3125 -22.867188 "/></g></g></g><g fill="#222629" fill-opacity="1"><g transform="translate(237.056945, 83.819751)"><g><path d="M 14.246094 -30.957031 L 4.527344 -30.957031 L 4.527344 0 L 14.246094 0 C 24.535156 0.0429688 29.023438 -7.914062 29.023438 -15.742188 C 29.023438 -23.347656 24.273438 -31 14.246094 -30.957031 Z M 14.203125 -3.210938 L 8.046875 -3.210938 L 8.046875 -27.703125 L 14.289062 -27.703125 C 22.03125 -27.703125 25.546875 -21.589844 25.546875 -15.523438 C 25.546875 -9.320312 22.160156 -3.164062 14.203125 -3.210938 Z M 14.203125 -3.210938 "/></g></g></g><g fill="#222629" fill-opacity="1"><g transform="translate(270.951386, 83.819751)"><g><path d="M 4.398438 0 L 7.914062 0 L 7.914062 -30.78125 L 4.398438 -30.78125 Z M 4.398438 0 "/></g></g></g><g fill="#222629" fill-opacity="1"><g transform="translate(285.415102, 83.819751)"><g><path d="M 23.261719 0 L 26.953125 0 L 15.785156 -30.78125 L 11.742188 -30.78125 L 0.660156 0 L 4.398438 0 L 7.914062 -9.675781 L 19.65625 -9.675781 Z M 12.3125 -22.867188 L 13.542969 -27.128906 L 13.894531 -27.128906 L 15.171875 -22.867188 L 18.554688 -12.796875 L 9.015625 -12.796875 Z M 12.3125 -22.867188 "/></g></g></g><g fill="#222629" fill-opacity="1"><g transform="translate(315.309097, 83.819751)"><g><path d="M 4.527344 0 L 8.089844 0 L 8.089844 -19.480469 L 7.605469 -26.691406 L 7.738281 -26.691406 L 10.859375 -20.796875 L 22.910156 0 L 27.21875 0 L 27.21875 -30.914062 L 23.65625 -30.914062 L 23.65625 -11.476562 L 24.050781 -4.222656 L 23.964844 -4.175781 L 20.929688 -9.980469 L 8.882812 -30.914062 L 4.527344 -30.914062 Z M 4.527344 0 "/></g></g></g><g clip-path="url(#1ee8ca1de8)"><path fill="#ff4500" d="M 91.398438 3.757812 L 91.398438 90.367188 L 73.515625 108.109375 L 38.382812 79.550781 L 38.382812 56.089844 L 73.515625 84.347656 L 73.515625 15.796875 Z M 91.398438 3.757812 " fill-opacity="1" fill-rule="nonzero"/></g><g clip-path="url(#f71b3ee6ae)"><path fill="#1f2833" d="M 12.03125 108.109375 L 12.03125 21.496094 L 29.898438 3.757812 L 65.042969 32.332031 L 65.042969 55.789062 L 29.898438 27.515625 L 29.898438 96.085938 Z M 12.03125 108.109375 " fill-opacity="1" fill-rule="nonzero"/></g><g fill="#ff4500" fill-opacity="1"><g transform="translate(233.219044, 104.72554)"><g><path d="M 9.792969 0.292969 C 12.464844 0.292969 14.722656 -0.824219 16.472656 -2.941406 L 15.089844 -4.007812 C 13.726562 -2.355469 11.6875 -1.480469 9.792969 -1.480469 C 5.613281 -1.480469 3.160156 -4.835938 3.160156 -8.457031 C 3.160156 -12.269531 5.660156 -15.550781 9.890625 -15.550781 C 11.882812 -15.550781 13.460938 -14.773438 14.722656 -13.460938 L 15.9375 -14.601562 C 14.3125 -16.496094 12.292969 -17.300781 9.792969 -17.300781 C 4.226562 -17.300781 1.191406 -12.949219 1.191406 -8.457031 C 1.191406 -3.9375 4.300781 0.292969 9.792969 0.292969 Z M 9.792969 0.292969 "/></g></g></g><g fill="#ff4500" fill-opacity="1"><g transform="translate(252.555036, 104.72554)"><g><path d="M 12.851562 0 L 14.894531 0 L 8.722656 -17.007812 L 6.488281 -17.007812 L 0.363281 0 L 2.429688 0 L 4.375 -5.34375 L 10.859375 -5.34375 Z M 6.804688 -12.632812 L 7.484375 -14.992188 L 7.679688 -14.992188 L 8.382812 -12.632812 L 10.253906 -7.070312 L 4.980469 -7.070312 Z M 6.804688 -12.632812 "/></g></g></g><g fill="#ff4500" fill-opacity="1"><g transform="translate(269.583432, 104.72554)"><g><path d="M 11.636719 0 L 13.945312 0 L 8.550781 -6.949219 C 11.492188 -7.144531 13.410156 -8.867188 13.410156 -11.929688 C 13.410156 -15.453125 11.007812 -17.007812 7.773438 -17.007812 L 2.503906 -17.007812 L 2.503906 0 L 4.46875 0 L 4.46875 -6.925781 L 6.292969 -6.925781 Z M 11.445312 -12.003906 C 11.445312 -9.816406 10.082031 -8.675781 7.726562 -8.675781 L 4.46875 -8.675781 L 4.46875 -15.257812 L 7.773438 -15.257812 C 9.914062 -15.257812 11.445312 -14.164062 11.445312 -12.003906 Z M 11.445312 -12.003906 "/></g></g></g><g fill="#ff4500" fill-opacity="1"><g transform="translate(286.393214, 104.72554)"><g><path d="M 11.105469 -15.308594 L 11.105469 -17.03125 L 2.015625 -17.03125 L 2.015625 0 L 11.105469 0 L 11.105469 -1.699219 L 3.960938 -1.699219 L 3.960938 -7.800781 L 11.007812 -7.800781 L 11.007812 -9.5 L 3.960938 -9.5 L 3.960938 -15.308594 Z M 11.105469 -15.308594 "/></g></g></g><g fill="#ff4500" fill-opacity="1"><g transform="translate(300.968266, 104.72554)"><g><path d="M 11.105469 -15.308594 L 11.105469 -17.03125 L 2.015625 -17.03125 L 2.015625 0 L 11.105469 0 L 11.105469 -1.699219 L 3.960938 -1.699219 L 3.960938 -7.800781 L 11.007812 -7.800781 L 11.007812 -9.5 L 3.960938 -9.5 L 3.960938 -15.308594 Z M 11.105469 -15.308594 "/></g></g></g><g fill="#ff4500" fill-opacity="1"><g transform="translate(315.543318, 104.72554)"><g><path d="M 11.636719 0 L 13.945312 0 L 8.550781 -6.949219 C 11.492188 -7.144531 13.410156 -8.867188 13.410156 -11.929688 C 13.410156 -15.453125 11.007812 -17.007812 7.773438 -17.007812 L 2.503906 -17.007812 L 2.503906 0 L 4.46875 0 L 4.46875 -6.925781 L 6.292969 -6.925781 Z M 11.445312 -12.003906 C 11.445312 -9.816406 10.082031 -8.675781 7.726562 -8.675781 L 4.46875 -8.675781 L 4.46875 -15.257812 L 7.773438 -15.257812 C 9.914062 -15.257812 11.445312 -14.164062 11.445312 -12.003906 Z M 11.445312 -12.003906 "/></g></g></g><g fill="#ff4500" fill-opacity="1"><g transform="translate(332.353094, 104.72554)"><g><path d="M 6.535156 0.316406 C 9.015625 0.316406 12.003906 -1.191406 12.003906 -4.46875 C 12.003906 -7.921875 9.425781 -9.085938 6.972656 -9.71875 C 5.660156 -10.058594 3.71875 -10.789062 3.71875 -12.707031 C 3.71875 -14.699219 5.25 -15.550781 6.730469 -15.550781 C 8.042969 -15.550781 9.304688 -14.96875 10.035156 -13.410156 L 11.589844 -14.140625 C 10.691406 -16.277344 8.820312 -17.324219 6.804688 -17.324219 C 4.398438 -17.324219 1.824219 -15.9375 1.824219 -12.828125 C 1.824219 -9.644531 4.398438 -8.578125 6.464844 -7.992188 C 7.992188 -7.582031 10.035156 -6.777344 10.035156 -4.542969 C 10.035156 -2.722656 8.601562 -1.480469 6.632812 -1.480469 C 5.101562 -1.480469 3.71875 -2.285156 2.890625 -4.035156 L 1.261719 -3.207031 C 2.234375 -0.824219 4.421875 0.316406 6.535156 0.316406 Z M 6.535156 0.316406 "/></g></g></g></svg>